<svg width="1200" height="497pt" viewBox="0 0 900 497" xmlns="http://www.w3.org/2000/svg"><g fill="#f4f4f4"><path d="M0 0h900v497H0V0m506.8 153.9c-32.5 6.2-65.3 11-97.7 17.3-14 2.2-27.9 5-41.8 7.2-5 .9-10.3 1.4-15 3.7 7 41.7 15 83.2 21.7 125 .7 4.6 1.4 9.2 2.5 13.7 5.7-.4 11.1-2.7 16.8-2.4.2 3.7.5 7.4 1.1 11 7.2 1 14.4.7 21.6.7h131c4.8 0 9.7.6 14.4-.6 2.4-.6 1.6-3.6 2-5.4-.2-39.7 0-79.5 0-119.2-.2-1.8 0-4.8-2.6-5-10.7-1-21.5.5-32.3-.5-4.4-15.5-5.2-31.7-8.9-47.3-4.3 0-8.6.8-12.8 1.8z"/><path d="M483.9 171.9c8-1.1 15.8-3.3 23.8-3.8 1.5 3.8 2.6 7.7 3.3 11.8 1.1 6.4 3 12.9 2.6 19.5-4.9.4-9.7.3-14.6.3h-96c-3 0-6 .2-9 .5-.7 6.2-.3 12.5-.3 18.8v70c-.1 4.8.5 9.6-.5 14.3-1.2 1.8-3.6 1.5-5.5 1.3-2.6-18-6.5-36-9.4-54-2.9-15.3-5.4-30.6-8.2-45.8a84 84 0 01-1.8-12.4c38.5-7.2 77.1-13.2 115.6-20.5z"/><path d="M407.3 213.4c43.2-.4 86.5 0 129.7-.2 4.1-.1 8.3-.1 12.4.4.6 6.1.2 12.3.3 18.4v79l-.3 5.4c-4.8.5-9.6.4-14.4.3H424c-5.5 0-11 .4-16.4-.3-.3-2.1-.6-4.2-.6-6.3v-91.2l.3-5.5m9 9.8c-.2 3.6-.3 7.2-.2 10.8.3 21-.3 42.2.2 63.3 2.6-.4 5-1.3 7.1-2.9 5.6-4.1 11.5-7.9 17.3-11.7 1.6-1 3.2-2.1 5.1-2.3 6.4 2.4 11 8.5 18 9.6 4.3-3 6.7-8 10.5-11.7 7-6.7 13-14.3 19.8-21.2 4-4 6.6-9.5 11.6-12.5 4-2 7.6 2 9.9 4.8 5.6 7.3 12.4 13.7 18 21 1.7 2 3.4 4.2 6.1 4.8 1-10 .2-20.1.5-30.2-.3-6.9.7-13.8-.5-20.6l-1-1.2c-6.2-1.1-12.5-.2-18.7-.4h-90c-4.6-.2-9.1-.1-13.7.4z"/><path d="M441.4 231.3c7.5-2.2 15.4 5.1 14.8 12.7a12.3 12.3 0 01-15.2 11.2c-7-1.7-11.3-10-8.3-16.6 1.5-3.6 4.8-6.4 8.7-7.3z"/></g><g fill="#dadada"><path d="M506.8 153.9c4.2-1 8.5-1.7 12.8-1.8 3.7 15.6 4.5 31.8 9 47.3 10.7 1 21.5-.5 32.2.5 2.5.3 2.4 3.2 2.5 5v119.2c-.3 1.8.5 4.8-1.9 5.4-4.7 1.2-9.6.5-14.4.6H416c-7.2 0-14.4.3-21.6-.7-.6-3.6-1-7.3-1-11-5.8-.3-11.2 2-16.9 2.4-1-4.5-1.8-9.1-2.5-13.7-6.8-41.8-14.8-83.3-21.7-125 4.7-2.3 10-2.8 15-3.7 14-2.2 27.8-5 41.8-7.2 32.4-6.4 65.2-11.1 97.7-17.3m-22.9 18c-38.5 7.3-77.1 13.3-115.6 20.5a84 84 0 001.8 12.4c2.8 15.2 5.3 30.5 8.2 45.8 3 18 6.8 36 9.4 54 2 .2 4.3.5 5.5-1.3 1-4.7.4-9.5.5-14.3v-70c0-6.3-.4-12.6.3-18.8 3-.3 6-.6 9-.6h96c4.9.2 9.7.2 14.6-.2.4-6.6-1.5-13-2.6-19.5-.7-4-1.8-8-3.3-11.8-8 .5-15.8 2.7-23.8 3.8m-76.6 41.5l-.3 5.5v91.2c0 2 .3 4.2.6 6.3 5.4.7 11 .3 16.4.3h111c4.8 0 9.6.2 14.4-.3l.3-5.3V232c-.1-6.1.3-12.3-.3-18.4-4.1-.5-8.3-.5-12.4-.4-43.2.2-86.5-.2-129.7.2z"/><path d="M416.3 223.2c4.6-.5 9.1-.6 13.7-.5h90c6.2.3 12.5-.6 18.6.5l1 1.2c1.3 6.8.3 13.7.6 20.6-.3 10 .5 20.2-.5 30.2-2.7-.6-4.4-2.8-6-4.9-5.7-7.3-12.5-13.6-18.1-20.9-2.3-2.9-5.9-6.8-10-4.8-5 3-7.5 8.5-11.5 12.5-6.8 7-12.8 14.5-19.8 21.2-3.8 3.6-6.2 8.7-10.5 11.7-7-1-11.6-7.2-18-9.6-1.9.2-3.5 1.3-5 2.3-5.9 3.8-11.8 7.6-17.4 11.7-2 1.6-4.5 2.5-7 2.9-.6-21.1 0-42.2-.3-63.3 0-3.6 0-7.2.2-10.8m25 8.1c-3.8.9-7.1 3.7-8.6 7.3-3 6.6 1.3 15 8.3 16.6 7 2 15-3.8 15.2-11.2.6-7.6-7.3-14.9-14.8-12.7z"/></g></svg>