<?xml version="1.0" encoding="utf-8"?>
<!-- Generator: Adobe Illustrator 24.2.3, SVG Export Plug-In . SVG Version: 6.00 Build 0)  -->
<svg version="1.1" id="Camada_1" xmlns:xodm="http://www.corel.com/coreldraw/odm/2003"
	 xmlns="http://www.w3.org/2000/svg" xmlns:xlink="http://www.w3.org/1999/xlink" x="0px" y="0px" viewBox="0 0 1232 548"
	 style="enable-background:new 0 0 1232 548;" xml:space="preserve">
<style type="text/css">
	.st0{fill:#14BF43;}
	.st1{fill:#005C78;}
</style>
<g id="Layer_x0020_1">
	<g id="_2045574904720">
		<g id="__x0023_14bf43ff">
			<path class="st0" d="M846.6,0h1.8c38.6,0.3,76.6,26.6,87.7,64c14.3,40.2-3.5,89.7-41.7,109.7c-20,12.2-44.1,14.2-66.8,10.6
				c18.2,44.3,19,94,11.9,140.8c-13.6,68.1-55.3,130.1-113.9,167.6c-22.7,9.6-50.4-4.3-56-28.2c-4-14.8,3.5-29.3,13.8-39.5
				c33.9-23.6,61.5-57.5,72.5-97.7c14-43.1,9.1-90.9-10.1-131.7c-21.2-42.3-59.1-75.9-104-91.1C590.7,89,532,93.6,487.2,123.9
				C502,109.3,506,83.6,490.3,68c-9.7-12.7-26.2-14.2-40.9-15c30.1-19,65-29.9,100-35.4c73.4-10.2,151.1,12.9,206.4,62.5
				C763.1,36.6,802,0.8,846.6,0L846.6,0z"/>
			<g>
				<path class="st0" d="M90.2,56.2C133.1,28.1,188,24.1,237,35.8c49.1,13.7,90.6,49,115,93.4c-38.4,61.1-51.6,137.7-34.9,208.1
					c-38.6,1.2-73.5,25.4-91.4,59c-49.6,11.2-102.2-0.8-144.3-28.6c0.5,46.8,0.5,93.7,0.2,140.5c1,27.2-30.4,47.9-55,36.8
					c-14.4-4.3-23.1-17.7-26.2-31.6V204.8C4.4,144.8,38,86.8,90.2,56.2L90.2,56.2L90.2,56.2z M164.5,111.1
					c-20.9,4.8-40.2,16-55,31.4C73,180,71.7,246,107.7,284.2c29.8,35.5,84.7,45.9,125.8,24.5c45.4-21.1,70.1-78.1,54-125.7
					C272.1,132.6,216.2,99.1,164.5,111.1L164.5,111.1z"/>
			</g>
		</g>
		<g id="__x0023_005c78ff">
			<g>
				<path class="st1" d="M947.5,57.2c44.8-29.4,102.3-33.8,153.2-20.2c46.8,15.3,88.3,48.8,110.1,93.3c20,36.3,24.9,79.5,17.4,120
					C1216.7,306.1,1179,356.7,1127,381c-37.6,19.1-82,24.4-123.1,14.5c-22.9-5-43.7-16.2-63.7-27.9c0.7,42.8,0,85.5,0.4,128.2
					c0.1,11.5,0.3,23.9-6.4,33.9c-13.7,24.2-54.8,23.9-67.9-0.8c-5.7-8.7-6.2-19.4-6.1-29.4c0.4-100.1-0.2-200.2,0.3-300.3
					c31.6-5.5,62.3-23.2,78.1-51.8C955.5,120.9,958.8,86.5,947.5,57.2L947.5,57.2L947.5,57.2z M1026.5,110.6
					c-40.5,7.5-74.6,40-83.8,80.2c-10.5,41,8.3,86.7,42.9,110.5c39.9,28,99.1,23.6,133.4-11.3c29.5-27.4,39.6-72.9,25.9-110.5
					C1129.5,131.7,1075.7,100.7,1026.5,110.6L1026.5,110.6z"/>
			</g>
			<path class="st1" d="M334.2,203.8C352.3,141.6,393.6,86.4,449.4,53c14.7,0.8,31.3,2.2,40.9,15c15.7,15.5,11.7,41.3-3.2,55.9
				c-34.8,22.3-62,56.8-73.8,96.5c-15.9,47-9.2,100.1,14.5,143.2c23.1,39.1,60.2,70.6,104.3,82.7c50.2,16.1,107,7.1,151.1-21.4
				c-10.3,10.2-17.8,24.7-13.8,39.5c5.6,23.9,33.4,37.8,56,28.2c-52.8,33.9-118.1,49.2-180.3,39c-49.5-8-96.9-29.8-134.3-63.4
				c-8,19.7-18.9,39.4-37.4,51c-32.1,23.9-79.7,22.4-110.3-3.5c-37.5-27.6-46-84.8-20.4-123.2c19.4-30.5,57.2-46.1,92.7-41.6
				C322,303.1,321.5,251.9,334.2,203.8L334.2,203.8z"/>
		</g>
	</g>
</g>
</svg>
